<svg width="74" height="74" viewBox="0 0 74 74" fill="none" xmlns="http://www.w3.org/2000/svg">
<path d="M74 37C74 27.187 70.1018 17.7759 63.163 10.8371C56.2241 3.8982 46.813 7.40862e-07 37 0C27.187 -7.40862e-07 17.7759 3.8982 10.8371 10.837C3.89821 17.7759 1.48172e-06 27.187 0 37H13.2345C13.2345 30.697 15.7383 24.6521 20.1952 20.1952C24.6521 15.7383 30.697 13.2345 37 13.2345C43.303 13.2345 49.3479 15.7383 53.8048 20.1952C58.2617 24.6521 60.7655 30.697 60.7655 37H74Z" fill="#FA98DE"/>
<path d="M0 37C-8.5788e-07 46.813 3.8982 56.2241 10.837 63.1629C17.7759 70.1018 27.187 74 37 74C46.813 74 56.2241 70.1018 63.1629 63.163C70.1018 56.2241 74 46.813 74 37L60.7655 37C60.7655 43.303 58.2617 49.3479 53.8048 53.8048C49.3479 58.2617 43.303 60.7655 37 60.7655C30.697 60.7655 24.6521 58.2617 20.1952 53.8048C15.7383 49.3479 13.2345 43.303 13.2345 37H0Z" fill="#8AA4FF"/>
<path d="M35.6658 16.6624C36.5063 16.2451 37.4937 16.2451 38.3342 16.6624L56.9848 25.9229C58.0053 26.4296 58.6506 27.4706 58.6506 28.6099V46.3901C58.6506 47.5294 58.0053 48.5704 56.9848 49.0771L38.3342 58.3376C37.4937 58.7549 36.5063 58.7549 35.6658 58.3376L17.0152 49.0771C15.9947 48.5704 15.3494 47.5294 15.3494 46.3901V28.6099C15.3494 27.4706 15.9947 26.4296 17.0152 25.9229L35.6658 16.6624Z" fill="#5C75CB"/>
<path d="M51.0016 39.2372C51.0014 41.3262 33.5625 49.8547 28.4163 52.326C27.7553 52.6434 27.0032 52.1564 27.0032 51.4231L27.0033 26.6052C27.0033 25.865 27.7693 25.3783 28.4314 25.7094C33.5963 28.292 51.0019 37.1502 51.0016 39.2372Z" fill="#F45BC9"/>
</svg>
