<svg width="89" height="19" viewBox="0 0 89 19" fill="none" xmlns="http://www.w3.org/2000/svg">
<path d="M66.0074 0.0130776C65.0878 0.0703736 64.2954 0.187258 63.5898 0.368314C62.838 0.560828 61.7796 1.00545 60.8253 1.53028C60.6228 1.64258 60.4204 1.73196 60.3799 1.73196C60.2816 1.73196 60.218 1.67237 60.1312 1.50278C60.0445 1.34005 59.9809 1.2988 59.8825 1.33776C59.8305 1.35839 59.8016 1.48215 59.7784 1.75488L59.7495 2.13991L59.5471 2.2545C59.1827 2.46076 58.3962 2.82288 57.9566 2.99018C57.2973 3.2377 56.6379 3.42105 55.9323 3.55626C55.0764 3.71669 54.8335 3.73732 53.7924 3.73503C52.9365 3.73274 52.9133 3.73274 52.2019 3.63877C51.8029 3.58606 51.4212 3.52876 51.3518 3.50814C51.2881 3.4898 51.1378 3.4073 51.0221 3.32708C50.8948 3.23541 50.5016 3.04748 49.9868 2.82975C49.5357 2.63953 49.0788 2.44014 48.9747 2.38972C48.7954 2.30034 48.5583 2.05282 48.5583 1.95198C48.5583 1.89926 48.4079 1.80071 48.3327 1.80071C48.3038 1.80071 48.2633 2.06886 48.2344 2.3943C48.2055 2.72203 48.165 2.99476 48.1419 3.00393C48.1187 3.0131 47.87 3.00393 47.5924 2.9856C46.5745 2.91226 46.0424 2.89851 45.4814 2.92601C43.7348 3.00852 42.393 3.28124 41.0107 3.82899C40.1547 4.16819 39.6573 4.44321 39.131 4.86032C38.6394 5.25681 38.4312 5.50662 37.9107 6.33856C37.6851 6.69609 37.4769 7.00778 37.448 7.0307C37.396 7.06966 37.3786 7.06966 37.2629 7.03757C36.968 6.95507 35.7881 6.4669 35.6146 6.3546C35.5047 6.28126 35.3891 6.16209 35.337 6.06354C35.2387 5.87561 35.1577 5.81831 35.0594 5.85727C35.0131 5.87561 34.9842 6.33398 34.9669 7.34697C34.9379 8.66936 34.9264 8.81604 34.8396 8.85042C34.776 8.87792 34.5446 8.89626 34.0299 8.91688C33.4863 8.9398 33.2202 8.96501 32.8905 9.01772C32.6534 9.05669 32.3758 9.08877 32.2717 9.08877C31.5835 9.08877 29.8715 8.93751 28.1422 8.72208C26.7426 8.5479 26.6674 8.53415 26.4939 8.39205C26.4187 8.32788 26.3088 8.20183 26.2626 8.11474C26.1064 7.8443 25.9849 7.85576 25.9155 8.14682C25.8635 8.38976 25.8346 8.42414 25.7015 8.42414C25.5801 8.42414 23.0295 8.19266 22.4917 8.13307C22.1562 8.0964 22.0116 8.05286 22.0116 7.99098C22.0116 7.90847 21.8323 7.72054 21.6588 7.61512C21.5605 7.55782 21.2077 7.39281 20.8723 7.25071C20.1782 6.95736 19.889 6.79922 19.837 6.68234C19.7907 6.57462 19.6924 6.47607 19.6346 6.47607C19.5536 6.47607 19.5305 6.60671 19.5073 7.2278C19.49 7.5922 19.4611 7.83972 19.4264 7.85347C19.3859 7.86951 19.1025 7.86264 18.5646 7.83055C15.0482 7.62658 11.9771 7.71137 9.17205 8.08953C8.83661 8.13536 8.53586 8.17203 8.49537 8.17203C8.39127 8.17203 8.45489 8.11932 8.84239 7.87639C9.5075 7.45927 10.1321 6.90694 10.3924 6.50128C10.67 6.07271 10.7568 5.41266 10.589 4.97491C10.3288 4.29653 9.49593 3.42105 8.85974 3.16207C8.40862 2.97872 8.08474 2.96955 7.54108 3.12998C6.88175 3.32479 6.15881 3.7717 5.78866 4.21173C5.38959 4.69531 5.2103 5.19493 5.21608 5.86873C5.21608 6.43711 5.26235 6.6365 5.53996 7.19113C5.63828 7.38823 5.7019 7.57616 5.67877 7.60595C5.66142 7.63574 5.18716 7.84888 4.62615 8.08036C2.79276 8.83667 2.13921 9.13919 1.55507 9.49672C0.826338 9.94363 0.363651 10.3585 0.143875 10.7641C-0.0469833 11.1056 -0.0469833 11.7679 0.138091 12.1071C0.49089 12.7488 1.19649 13.2691 2.31272 13.7068C2.8853 13.9314 3.36533 14.0712 4.05358 14.2065C4.6088 14.3165 5.48791 14.4311 6.10675 14.4769C6.62728 14.5136 7.92858 14.5136 8.61683 14.4769C9.29351 14.4402 9.31086 14.4425 9.36291 14.6557C9.39761 14.7748 9.54799 15.043 9.99332 15.7924C10.0974 15.9574 10.1206 16.072 10.1206 16.3768C10.1263 16.716 10.1148 16.771 9.99332 16.9108C9.73885 17.1996 9.1547 17.4425 8.36235 17.5892C7.46011 17.7565 6.58679 17.7749 5.94481 17.6373C5.55153 17.5548 5.26813 17.4494 5.3144 17.4013C5.33175 17.3829 5.47056 17.3623 5.64985 17.3532C6.28604 17.3188 6.75451 17.1881 7.03213 16.9658C7.46011 16.6198 7.2519 16.1316 6.56944 15.8887C6.14145 15.7351 5.9506 15.7076 5.33175 15.7076C4.60302 15.7076 4.38324 15.7351 3.97261 15.8864C3.3075 16.1293 3.02989 16.3814 3.02989 16.7321C3.02989 17.2225 3.66608 17.5984 4.86907 17.823C5.44742 17.9307 5.91589 17.9765 6.62728 17.9949C7.47746 18.0178 8.14258 17.9651 8.94071 17.8138C9.46702 17.7153 10.2478 17.4059 10.4907 17.2019C10.7741 16.9635 10.8724 16.7229 10.8319 16.3447C10.803 16.017 10.6989 15.7764 10.2131 14.9215C10.1148 14.745 10.0165 14.5319 9.99911 14.4494C9.97019 14.3096 9.97597 14.2958 10.1032 14.2592C10.1784 14.2385 10.5196 14.1492 10.8609 14.0621C12.515 13.6312 13.3189 13.0995 13.4288 12.3661C13.4693 12.1025 13.4866 12.0796 13.6485 12.0498C13.9319 11.9994 15.615 11.8115 16.1702 11.7679C17.7318 11.6488 19.7849 11.6213 21.6646 11.6923L22.6189 11.729L22.8445 11.8206C22.9717 11.8688 23.151 11.9261 23.2435 11.9467C23.5385 12.0063 24.0185 12.0109 24.539 11.9559C25.0596 11.9032 25.1232 11.9054 26.3204 12.0109C27.6333 12.1255 30.7159 12.4372 31.8148 12.5655C34.4232 12.868 35.3428 12.9505 36.4821 12.9849C36.8754 12.9964 37.2803 13.0078 37.3844 13.0078C37.4827 13.0078 37.5695 13.017 37.5695 13.0284C37.5695 13.0376 37.396 13.088 37.1877 13.1362C36.3202 13.3378 35.9558 13.6243 36.3144 13.8329C36.4937 13.9429 36.7655 13.9979 37.182 14.0094C37.9049 14.0323 38.6568 13.9223 39.1831 13.7137C39.5764 13.5579 39.6516 13.4547 39.6516 13.0697V12.7718L40.1721 12.5678C40.7447 12.3409 41.1726 12.1048 41.4907 11.8344C41.6064 11.7358 41.7279 11.6579 41.7626 11.6625C41.7915 11.6671 41.8725 11.7061 41.9361 11.7496C42.0344 11.8161 42.0517 11.8688 42.0517 12.0911C42.0517 12.3753 42.017 12.4372 41.6989 12.6961C41.4965 12.8657 41.4907 12.9207 41.6874 12.8245C41.9419 12.703 42.3062 12.3569 42.4045 12.1415C42.5144 11.894 42.4682 11.7496 42.1963 11.486L42.0286 11.3279L42.2484 11.0048C42.3756 10.826 42.6359 10.4249 42.8325 10.1109C43.4109 9.17586 43.7579 8.82063 44.5503 8.34392C45.7764 7.60595 47.4016 7.09945 49.1251 6.9184C49.8364 6.84277 51.0163 6.8336 51.8144 6.89548C52.682 6.96423 52.6068 6.92527 52.6068 7.31259V7.64491L52.0342 7.64262C51.2014 7.63804 50.9527 7.677 50.3975 7.89472C50.0215 8.04598 49.9406 8.08953 49.8538 8.20641C49.5241 8.65332 49.981 8.99251 50.8775 8.9696C51.5253 8.95126 52.387 8.70833 52.7051 8.45164L52.867 8.321L52.9017 7.67929C52.9249 7.32635 52.9422 7.03528 52.948 7.0307C52.9654 7.01007 53.3991 7.06508 54.1394 7.17967C57.118 7.64262 57.4361 7.67929 58.5639 7.67929C59.4372 7.67929 59.8478 7.63574 60.7674 7.44552C62.3232 7.12695 63.4279 6.67775 65.4174 5.54788C66.285 5.05513 66.6725 4.86491 67.3202 4.6128C68.9049 3.99401 70.4318 3.82441 72.9824 3.97796C74.0581 4.04214 74.087 4.03755 73.9309 3.86566C73.7978 3.7144 69.9633 0.503532 69.6221 0.253721C69.4428 0.120794 69.3329 0.10246 68.4885 0.0451636C67.835 0.00391041 66.4585 -0.0144245 66.0074 0.0130776ZM67.9738 0.162048C68.9454 0.212468 69.1305 0.235387 69.2867 0.320185C69.4312 0.393524 70.0732 0.932107 70.0732 0.97336C70.0732 1.00545 69.7089 1.00315 69.3792 0.968776C69.0784 0.936691 69.0437 0.909188 69.038 0.65021C69.0322 0.496656 68.9686 0.418734 68.8818 0.455404C68.8645 0.459987 68.8413 0.569996 68.8182 0.698339L68.7835 0.929814H68.4596C67.9564 0.929814 66.9269 0.97336 66.499 1.01232C65.0588 1.14525 63.9542 1.46381 62.5835 2.1422C62.2654 2.29804 61.9762 2.43097 61.9357 2.43556C61.8547 2.44701 61.045 2.14908 60.8137 2.02073L60.6518 1.93364L60.7559 1.84884C60.9583 1.69529 62.0861 1.11775 62.624 0.895437C63.5031 0.528742 64.2318 0.340811 65.1861 0.230803C66.1346 0.120795 66.846 0.104752 67.9738 0.162048ZM68.7719 1.11316C68.8355 1.15212 68.8702 1.60132 68.8182 1.74113L68.7719 1.87635L68.1878 1.91531C66.3428 2.03907 65.1456 2.35992 63.5956 3.15061L62.9883 3.46001L62.9536 3.37979C62.9305 3.33625 62.8842 3.23541 62.8495 3.1529C62.8148 3.05664 62.6991 2.93288 62.5256 2.79996L62.2596 2.59598L62.4736 2.46764C63.3758 1.92677 64.6713 1.44319 65.695 1.26213C66.0652 1.19796 66.5568 1.13837 66.9385 1.11316C67.3434 1.08566 68.7314 1.08566 68.7719 1.11316ZM69.8708 1.15441L70.3335 1.19338L70.7499 1.52569C70.9812 1.70904 71.1721 1.87634 71.1721 1.89697C71.1721 1.92677 71.1258 1.93823 71.0159 1.93823C70.6747 1.93823 69.171 1.86259 69.1074 1.83968C69.0148 1.81217 69.0033 1.22317 69.09 1.15671C69.1652 1.104 69.2693 1.10399 69.8708 1.15441ZM68.8297 2.15137C68.824 2.21095 68.8182 2.40118 68.8124 2.57536L68.8008 2.89163L68.3266 2.95351C67.7077 3.03372 67.0773 3.17353 66.4874 3.35688C65.6835 3.60898 65.134 3.86566 63.7691 4.63114C62.381 5.41037 61.7796 5.69914 60.9699 5.96728C59.8594 6.33856 58.8993 6.52649 57.76 6.59066C57.3667 6.61358 57.2047 6.61358 56.7016 6.5792C55.9613 6.53108 55.0706 6.41878 54.0353 6.2446C53.6016 6.16897 53.2198 6.10938 53.1967 6.10938C53.1678 6.10938 53.0868 6.08188 53.0059 6.04979C52.8786 5.99479 52.867 5.97416 52.8728 5.76331C52.8786 5.62809 52.9075 5.52267 52.9422 5.50891C52.9943 5.48829 53.2488 5.5135 53.937 5.60288C55.1226 5.75643 55.5101 5.78852 56.1984 5.78852C56.9156 5.78852 57.2973 5.75873 57.9682 5.65101C59.5702 5.39203 61.0277 4.85803 62.6413 3.94588C64.6019 2.83434 65.3538 2.51577 66.6551 2.24992C66.9269 2.19491 67.3087 2.13074 67.4995 2.11011C67.8061 2.07344 68.6215 2.0299 68.7719 2.04136C68.8066 2.04365 68.8297 2.09407 68.8297 2.15137ZM70.7557 2.08719C71.5249 2.14678 71.4844 2.13303 71.8777 2.45847C72.2478 2.77016 72.3462 2.9008 72.2016 2.9008C72.1553 2.9008 71.976 2.88934 71.7967 2.87788C71.6174 2.86413 70.9292 2.84579 70.2699 2.83663L69.0611 2.82058L69.0437 2.45618C69.0322 2.19033 69.0495 2.0849 69.1016 2.0574C69.1594 2.0299 69.2751 2.02531 69.7262 2.03677C70.0269 2.04365 70.4896 2.06657 70.7557 2.08719ZM60.9005 2.48827C61.1029 2.52494 61.3342 2.58223 61.4152 2.61661C61.6003 2.68766 61.606 2.68078 61.0335 3.00393C60.484 3.31562 60.2469 3.42792 60.1544 3.42792C60.1023 3.42792 60.0618 3.38667 60.0387 3.30645C59.9924 3.16894 60.085 2.46306 60.1544 2.4218C60.2122 2.38055 60.4551 2.40347 60.9005 2.48827ZM59.7727 3.10936L59.7784 3.67544L59.1943 3.89775C58.1417 4.29653 57.199 4.5303 56.1637 4.64489C55.3077 4.74115 53.8734 4.6976 53.1273 4.55551L52.9249 4.51655L52.9075 4.19798L52.8902 3.88171L53.6016 3.89546C54.1857 3.90692 54.4055 3.90233 54.8335 3.86796C56.3198 3.7419 57.7426 3.34771 59.3389 2.61661C59.6338 2.48139 59.6917 2.46535 59.7264 2.50202C59.7495 2.52494 59.7727 2.79996 59.7727 3.10936ZM62.2827 3.03373C62.4504 3.17582 62.4678 3.2102 62.4852 3.47376L62.5083 3.76024L62.034 4.0238C61.3574 4.39966 60.484 4.8099 60.2238 4.87866L60.0965 4.91074V4.32174V3.73274L60.3337 3.62044C60.4667 3.55856 60.8021 3.38438 61.0797 3.23312C61.7853 2.84579 61.8374 2.82517 61.982 2.85725C62.0514 2.871 62.1844 2.95122 62.2827 3.03373ZM49.3101 2.97185C49.8422 3.0704 50.4495 3.28124 50.3338 3.32708C50.3165 3.33396 50.0851 3.30416 49.8249 3.26062C49.5588 3.21707 49.206 3.16436 49.0441 3.14373C48.7607 3.10706 48.5004 3.03602 48.5004 2.99247C48.5004 2.88017 48.7838 2.8733 49.3101 2.97185ZM71.8372 3.02685C72.1264 3.04748 72.4214 3.07727 72.5023 3.09102C72.7221 3.13227 73.526 3.78545 73.4103 3.83129C73.393 3.83816 72.9997 3.8267 72.5312 3.80378C71.8025 3.76941 71.5827 3.76711 70.9812 3.79003C70.2409 3.81754 69.5006 3.88629 68.8471 3.98713C68.6273 4.01922 68.4538 4.03755 68.4538 4.0238C68.4538 4.01234 68.529 3.9688 68.6215 3.92754C68.7083 3.88629 68.8297 3.81983 68.876 3.77857C68.9801 3.70294 69.09 3.38438 69.09 3.17124C69.09 3.02914 69.1189 3.01539 69.437 2.99018C69.7551 2.96268 71.2589 2.9856 71.8372 3.02685ZM68.7893 3.12311C68.8124 3.18499 68.6562 3.19415 68.4769 3.14144C68.3844 3.11165 68.3786 3.10477 68.4538 3.08415C68.5926 3.04748 68.7719 3.0681 68.7893 3.12311ZM47.604 3.13686C47.8295 3.15978 48.0435 3.18499 48.0898 3.19645C48.1939 3.22395 48.298 3.57002 48.246 3.73274L48.2055 3.86337H47.6156C45.3079 3.86566 43.7753 4.12235 42.1385 4.77782C41.2652 5.12618 40.7562 5.40349 40.2588 5.79998C39.7788 6.18959 39.5764 6.43711 38.9807 7.37447C38.3965 8.29579 38.1883 8.55706 37.7719 8.89397C37.3613 9.22857 37.0547 9.40505 36.5631 9.60214C35.8807 9.87258 35.1519 9.99634 34.0877 10.0193C32.8905 10.0468 31.9652 9.98488 29.964 9.75111L28.9808 9.63652L28.7264 9.45547C28.5876 9.35692 28.2984 9.19649 28.0728 9.09794C27.5812 8.87563 27.5176 8.83667 27.668 8.83667C27.7258 8.83667 28.2348 8.88709 28.7958 8.94897C29.912 9.07273 30.6349 9.13919 31.3521 9.18045C32.0288 9.2217 32.0404 9.22399 31.9015 9.36608C31.728 9.54026 31.7454 9.66632 31.9652 9.76487C32.1965 9.868 32.3874 9.90696 32.746 9.92529C33.492 9.96425 34.6835 9.74195 35.0478 9.49443C35.1924 9.39817 35.3139 9.17815 35.3139 9.01314C35.3139 8.93522 35.3659 8.90542 35.7361 8.74958C36.3723 8.48373 36.8234 8.20641 37.1704 7.86493C37.2803 7.75034 37.4075 7.65408 37.4422 7.64949C37.5695 7.63345 37.6851 7.79617 37.6851 7.97952C37.6851 8.1812 37.5868 8.35538 37.3381 8.56852C37.1357 8.74729 37.1183 8.79083 37.2745 8.73354C37.4364 8.67853 37.8355 8.34392 37.9454 8.1812C37.9917 8.10557 38.0322 7.94973 38.0322 7.82367C38.0322 7.63574 38.009 7.57386 37.8876 7.45698C37.8066 7.37906 37.743 7.29655 37.743 7.27363C37.743 7.198 38.7262 5.67164 38.9286 5.43099C39.4144 4.85574 40.3282 4.29882 41.5717 3.8267C42.5144 3.46918 43.6364 3.21936 44.77 3.11623C45.2732 3.07269 47.0661 3.08415 47.604 3.13686ZM49.3506 3.35C49.6629 3.39584 50.1025 3.46688 50.3338 3.51043C50.8601 3.60439 50.9295 3.65711 50.9295 3.94359C50.9295 4.18423 50.9006 4.19111 50.2991 4.1086C50.0562 4.07651 49.6629 4.02838 49.4258 4.00088C49.1887 3.97567 48.8822 3.93671 48.7491 3.91838L48.5004 3.88171V3.59064C48.5004 3.43021 48.5178 3.29041 48.5409 3.28354C48.6161 3.25374 48.8012 3.26749 49.3506 3.35ZM68.7314 3.40271C68.7893 3.64335 67.3376 4.10172 67.0079 3.94359C66.8402 3.86337 67.3549 3.55856 67.9333 3.39813C68.1936 3.32708 68.2919 3.31333 68.4827 3.31791C68.6967 3.32479 68.7141 3.32937 68.7314 3.40271ZM66.7939 3.58148C66.6725 3.7442 66.7187 3.93213 66.9096 4.03297C67.0889 4.12464 67.3087 4.14985 67.754 4.13381L68.0316 4.12235L67.245 4.43404C66.3891 4.77323 65.9033 5.01158 64.8102 5.62809C63.7633 6.22168 63.4221 6.38898 62.5893 6.71671C61.1376 7.28738 59.9172 7.53032 58.4482 7.53719C57.5055 7.54178 56.9271 7.47761 54.9781 7.15675C54.3245 7.05132 53.6536 6.9459 53.4859 6.92298C53.3182 6.90235 53.11 6.8611 53.0232 6.83131C52.8786 6.78089 52.8728 6.77172 52.8728 6.53566C52.8786 6.37752 52.9018 6.28127 52.948 6.26293C53.0232 6.23314 53.1157 6.2446 54.4575 6.46232C55.6085 6.64796 56.2273 6.70526 57.2047 6.7213C57.8351 6.73047 58.107 6.72359 58.4193 6.69609C58.9398 6.64796 59.9519 6.44628 60.6171 6.25835C61.768 5.93291 62.41 5.64413 64.2144 4.6426C65.3075 4.03526 66.0074 3.69836 66.47 3.55626C66.8402 3.44167 66.9038 3.44626 66.7939 3.58148ZM52.0169 3.76253C52.2598 3.79462 52.4911 3.83129 52.5316 3.84504C52.5837 3.86108 52.6068 3.95275 52.6068 4.15673V4.44321L52.387 4.43175C52.2713 4.42487 51.959 4.38133 51.693 4.3332C51.317 4.26444 51.2187 4.23694 51.2187 4.19798C51.2187 4.13152 51.3286 3.76711 51.3633 3.73044C51.398 3.68919 51.5195 3.69607 52.0169 3.76253ZM59.7437 4.07422C59.7611 4.14068 59.7784 4.24611 59.7784 4.30799V4.42029L59.2174 4.40425C58.9051 4.39508 58.6159 4.37904 58.5754 4.36987C58.5118 4.35612 58.6449 4.29653 59.0555 4.15214C59.362 4.04443 59.6338 3.95505 59.6628 3.95505C59.6859 3.95505 59.7206 4.01005 59.7437 4.07422ZM48.0898 4.04443C48.3211 4.10172 48.3269 4.73198 48.0956 4.78011C48.0435 4.79157 47.7428 4.81678 47.4247 4.8374C46.696 4.88324 45.6896 5.01846 45.1286 5.1468C43.567 5.49975 42.2079 6.09333 41.3288 6.80839C40.8835 7.16592 40.6753 7.42719 40.1085 8.33246C39.5185 9.26524 39.345 9.47838 38.8419 9.87946C38.0958 10.4753 37.3381 10.7687 36.1814 10.9108C35.7476 10.9635 34.429 10.9818 33.7349 10.9452C33.0756 10.9108 31.5719 10.7618 30.1665 10.5899C28.8825 10.4318 28.7611 10.4089 28.8073 10.347C28.8305 10.3218 28.8941 10.198 28.9519 10.072C29.0098 9.94592 29.0676 9.83591 29.0907 9.82904C29.1081 9.81987 29.5245 9.85654 30.0103 9.90925C31.7338 10.0949 33.2086 10.1843 34.0877 10.1568C35.6204 10.1063 36.7598 9.84737 37.5637 9.35921C38.2404 8.95355 38.6741 8.47227 39.3913 7.34697C39.935 6.48753 40.1027 6.27439 40.5422 5.92374C41.537 5.13076 43.2952 4.44092 44.9898 4.17506C45.7648 4.05359 46.1465 4.02609 47.1124 4.02609C47.604 4.0238 48.0435 4.03297 48.0898 4.04443ZM49.6687 4.18423C50.062 4.23465 50.4669 4.29653 50.571 4.32174C50.7503 4.36529 50.7503 4.36758 50.6751 4.45467C50.6288 4.5028 50.5363 4.58759 50.4669 4.64031C50.3975 4.69531 50.357 4.74573 50.3801 4.75261C50.4148 4.76636 50.4784 4.73427 50.785 4.55322C51.051 4.39737 51.0626 4.39737 51.7392 4.5028C52.6588 4.64489 52.6068 4.61739 52.6068 4.94283C52.6068 5.10097 52.5837 5.21556 52.549 5.21556C52.52 5.21556 52.1846 5.16972 51.8029 5.11243C50.8486 4.97262 50.2066 4.90158 49.3969 4.84886C49.0152 4.82365 48.6855 4.79386 48.6566 4.7824C48.5814 4.75261 48.5004 4.49363 48.5004 4.28049V4.09256H48.7318C48.8532 4.09256 49.2812 4.13381 49.6687 4.18423ZM9.11422 4.32174C9.49593 4.39966 9.71571 4.53946 9.80825 4.76865C9.88343 4.95429 9.81403 5.24306 9.62896 5.5135C9.39183 5.86873 8.65153 6.3844 7.82448 6.76943C7.32709 7.0009 6.59836 7.2553 6.42485 7.2553C6.19929 7.2553 6.13567 7.05591 6.13567 6.37294C6.13567 5.71289 6.17616 5.57996 6.48847 5.19264C6.83549 4.76865 7.40228 4.4455 8.02112 4.32632C8.35657 4.26215 8.81347 4.25986 9.11422 4.32174ZM53.6883 4.77323C54.4922 4.85116 55.6316 4.86032 56.2967 4.79386C56.5281 4.77094 56.7305 4.7549 56.7421 4.75948C56.7536 4.76636 56.7247 4.82824 56.6726 4.89928C56.557 5.05971 56.6032 5.16972 56.8346 5.27286C57.037 5.36453 57.4419 5.42182 57.8872 5.42182C58.2631 5.42182 58.2226 5.46308 57.7831 5.53413C57.0948 5.64184 55.9902 5.67851 55.2672 5.61892C54.7583 5.57538 53.6189 5.4287 53.295 5.36453C52.8902 5.28202 52.867 5.26369 52.867 5.00013C52.8728 4.77553 52.9017 4.71135 53.0116 4.71135C53.0406 4.71135 53.3413 4.73886 53.6883 4.77323ZM50.2066 5.06888C51.0452 5.15826 52.1672 5.31411 52.4217 5.37599L52.6068 5.42182V5.69685C52.6068 5.85269 52.5837 5.97187 52.5547 5.97187C52.52 5.97187 52.1267 5.9352 51.6698 5.89165C50.6288 5.78852 49.8712 5.75643 49.021 5.77477C48.1534 5.79081 47.523 5.85498 46.7307 6.00624C45.2385 6.28585 44.0818 6.69609 43.0986 7.29426C42.3062 7.77555 41.9014 8.19725 41.323 9.13919C40.7562 10.072 40.3803 10.5556 40.2357 10.5556C40.0853 10.5556 39.8424 10.3401 39.6516 10.033C39.6169 9.9803 39.5532 9.93675 39.5127 9.93675C39.3971 9.93675 39.3624 10.0972 39.3624 10.6908V11.2316L39.16 11.3531C38.784 11.5731 37.9107 11.7954 37.1068 11.8757C36.806 11.9054 36.5284 11.91 35.632 11.9009C34.6198 11.8894 34.4695 11.8825 33.7234 11.8092C33.278 11.7634 32.6129 11.6923 32.2486 11.6465C30.6812 11.4585 29.5303 11.3302 28.229 11.1996C26.303 11.0048 26.3088 11.0048 26.2683 10.9154C26.2047 10.7664 26.1642 10.4639 26.1989 10.4089C26.2279 10.363 26.2741 10.3493 26.3956 10.3493C26.6211 10.3493 28.0208 10.5028 28.1827 10.5441C28.3215 10.5808 28.3215 10.5785 28.1191 10.7664C27.9803 10.8947 28.0844 10.8718 28.362 10.716C28.5008 10.6403 28.6396 10.5785 28.6801 10.5785C28.7206 10.5785 29.2989 10.6403 29.964 10.716C32.6129 11.0185 33.6887 11.1056 34.7644 11.1056C36.5342 11.1033 37.7661 10.8558 38.6626 10.3241C39.3739 9.90238 39.7441 9.50359 40.467 8.36913C40.7273 7.96348 41.0396 7.51198 41.1669 7.36072C41.6758 6.75109 42.5029 6.23543 43.7637 5.75414C44.342 5.53183 44.8394 5.37599 44.9667 5.37599C45.0072 5.37599 45.0303 5.43099 45.0303 5.5135C45.0303 5.63955 45.0476 5.65788 45.2385 5.74039C45.7995 5.98791 47.1297 5.92374 47.9799 5.60746C48.3211 5.48141 48.4947 5.33703 48.5409 5.13764C48.5641 5.02763 48.5988 4.98637 48.6682 4.9795C48.8706 4.95658 49.5473 4.99554 50.2066 5.06888ZM50.7792 5.96041C51.4501 6.00624 52.5258 6.14605 52.5721 6.19188C52.6241 6.24689 52.6126 6.76943 52.5605 6.78318C52.5316 6.79005 52.2656 6.7786 51.9648 6.76026C51.5542 6.73276 51.1493 6.72588 50.3223 6.73505C49.3333 6.74422 49.1771 6.75109 48.7434 6.8061C46.6497 7.07424 44.7989 7.73888 43.6711 8.6327C43.22 8.98564 42.8904 9.38671 42.3988 10.1774C41.9303 10.9222 41.7915 11.1102 41.6874 11.1239C41.5891 11.1354 40.6984 10.7893 40.6579 10.7229C40.6405 10.6954 40.6984 10.5785 40.8025 10.4593C41.0743 10.1247 41.2941 9.8107 41.7047 9.15753C42.1616 8.42185 42.3467 8.19037 42.7458 7.86264C43.301 7.40427 43.9025 7.08112 44.9493 6.68234C45.9036 6.32023 46.7769 6.11167 47.8642 5.98562C48.298 5.9352 48.4715 5.92832 49.3159 5.92832C49.929 5.92603 50.4611 5.93749 50.7792 5.96041ZM36.1756 7.02382C36.6094 7.10633 37.1646 7.31718 37.1646 7.39968C37.1646 7.63804 35.7419 8.65332 35.4006 8.65332C35.2849 8.65332 35.256 8.46539 35.256 7.69762C35.256 6.8886 35.2502 6.89548 35.6435 6.93902C35.765 6.95048 36.0021 6.98944 36.1756 7.02382ZM20.5195 7.42031C21.0747 7.53719 21.6068 7.80534 21.6068 7.96806V8.0414L21.3234 8.02536C21.1672 8.01619 20.7566 7.98181 20.4096 7.94743L19.7849 7.88555L19.7676 7.6472C19.7618 7.51428 19.7676 7.39281 19.7792 7.37677C19.8312 7.32405 20.1609 7.34468 20.5195 7.42031ZM52.4217 7.84201C52.7225 7.92452 52.4622 8.16516 51.774 8.43789C51.3402 8.60978 50.918 8.71062 50.5363 8.73583C50.3454 8.74729 50.2818 8.74041 50.1777 8.69916C49.9232 8.59832 50.1603 8.41039 50.9411 8.11245C51.3517 7.95431 51.5657 7.89243 51.8029 7.85576C52.1846 7.79617 52.254 7.79617 52.4217 7.84201ZM16.1818 7.87409C17.6161 7.91306 19.3107 8.00931 19.4321 8.05744C19.4958 8.08265 19.5073 8.71291 19.4495 8.73812C19.4321 8.745 18.9232 8.73124 18.3275 8.71062C16.8122 8.65561 14.4467 8.67166 13.3652 8.7427C11.74 8.85042 10.4155 9.00168 9.02746 9.23316C8.11366 9.389 7.93437 9.43255 7.91123 9.50818C7.89966 9.54256 7.90545 9.57006 7.91702 9.57006C7.92858 9.57006 8.22355 9.52193 8.57056 9.46463C10.67 9.11398 12.6769 8.89626 14.3773 8.83667C15.7191 8.79083 17.8821 8.81604 18.715 8.88709L19.0331 8.91459L18.5877 8.94209C18.0961 8.97189 17.6219 9.05669 17.3385 9.1644C17.0898 9.25837 17.0319 9.30191 16.9568 9.45317C16.8816 9.60214 16.87 9.60444 16.014 9.62735C14.4756 9.66861 12.5902 9.82216 11.2137 10.0193C9.60004 10.2507 9.71571 10.2393 9.24146 10.2118C9.01011 10.2003 8.64575 10.1889 8.43175 10.1889C7.91123 10.1889 7.77243 10.1568 7.70881 10.0284C7.68567 9.97113 7.54687 9.69382 7.40806 9.40963C7.26347 9.12544 7.1478 8.85959 7.1478 8.82063C7.1478 8.73354 7.48325 8.55706 7.81869 8.46539C8.22355 8.35538 10.4271 8.08036 11.7168 7.97952C13.1107 7.86951 14.6491 7.83284 16.1818 7.87409ZM20.6814 8.1262C21.5142 8.19954 21.653 8.21787 21.6877 8.27058C21.7282 8.33246 21.6183 8.52956 21.4853 8.63499C21.3581 8.73354 21.3523 8.745 21.4333 8.745C21.4969 8.745 21.734 8.56623 21.8381 8.4356C21.9538 8.29121 22.0521 8.25683 22.3355 8.27517C22.5842 8.28892 24.8224 8.50894 25.3777 8.57311C25.8924 8.6304 25.8982 8.63728 25.8751 8.95355C25.8635 9.1094 25.8288 9.23545 25.7941 9.2492C25.7015 9.28587 21.4333 8.89855 21.3349 8.84584C21.2771 8.81375 21.2482 8.81375 21.1788 8.83438C21.1152 8.855 20.9764 8.85271 20.5599 8.82521C19.9758 8.78396 19.8486 8.76562 19.7907 8.70833C19.7734 8.68999 19.756 8.53873 19.756 8.37601V8.08036H19.9469C20.051 8.08036 20.3806 8.10099 20.6814 8.1262ZM20.9417 9.00856C22 9.08648 24.6836 9.32483 25.3025 9.39588C25.5685 9.42796 25.8114 9.46463 25.8346 9.48297C25.8635 9.49901 25.8808 9.64111 25.8751 9.79924L25.8577 10.0857L25.5974 10.0811C25.4529 10.0811 24.8051 10.0307 24.1515 9.97342C22.7056 9.84737 21.2135 9.73966 20.1435 9.68465C19.704 9.66402 19.3165 9.63423 19.2818 9.62048C19.2413 9.60444 19.276 9.57006 19.3974 9.50818C19.6114 9.40505 19.7387 9.26983 19.7907 9.10481C19.837 8.93522 19.8486 8.92605 19.9989 8.93751C20.0741 8.94439 20.4963 8.97647 20.9417 9.00856ZM27.0318 9.0796C27.3036 9.13232 27.587 9.21024 27.801 9.29275C28.1654 9.43026 28.2348 9.5013 28.015 9.5013C27.7547 9.5013 26.3204 9.33858 26.251 9.30191C26.1584 9.25608 26.1527 9.10252 26.2336 9.04064C26.3262 8.97647 26.5402 8.98564 27.0318 9.0796ZM6.55209 9.14607C6.66198 9.26754 7.14201 10.2164 7.1131 10.2462C7.09575 10.2576 6.85284 10.3287 6.56944 10.4043C5.28548 10.7366 4.49313 11.1262 4.2213 11.564C4.08828 11.7748 4.13455 12.2996 4.30227 12.4876C4.73026 12.9597 5.56888 13.3103 6.60992 13.4479C6.78343 13.4731 6.98007 13.4845 7.03791 13.4776C7.13623 13.4639 7.0784 13.4341 6.64463 13.276C5.85228 12.9872 5.7019 12.9161 5.50526 12.7557C5.34332 12.6228 5.32597 12.5861 5.33175 12.4119C5.3491 11.9719 5.89276 11.6304 6.97429 11.3806C7.36179 11.2912 7.57 11.2683 7.6394 11.3096C7.6741 11.3348 8.58213 13.0995 8.82504 13.6243C8.92336 13.8283 8.99855 14.0323 8.99855 14.0758C8.99855 14.1446 8.97541 14.1537 8.78455 14.179C8.6631 14.1927 8.09631 14.2087 7.51795 14.2156C6.68511 14.2248 6.39015 14.2202 6.06048 14.1904C4.17504 14.0208 2.71757 13.5693 1.9657 12.9276C1.62447 12.6343 1.57242 12.5151 1.57242 12.0682C1.57242 11.7015 1.58399 11.6465 1.72858 11.4379C1.8963 11.195 2.41682 10.7526 2.80432 10.5212C3.20918 10.2759 3.97261 9.93675 5.11776 9.48297C6.34388 8.99939 6.4075 8.98335 6.55209 9.14607ZM27.2862 9.59527C27.7721 9.64798 28.2463 9.70528 28.3331 9.72361C28.5529 9.76716 28.6049 9.83591 28.6049 10.0743C28.6049 10.237 28.5818 10.2851 28.495 10.3287L28.3851 10.3814L27.8473 10.3264C26.5286 10.1934 26.2683 10.1568 26.1874 10.0972C26.1064 10.0353 26.1122 9.58381 26.1932 9.52881C26.2626 9.48755 26.3088 9.49214 27.2862 9.59527ZM18.4547 9.77632C20.1493 9.8107 22.59 9.96884 24.8167 10.1889C25.4239 10.2484 25.7652 10.292 25.8114 10.3195C25.8982 10.3653 25.9155 10.8695 25.8288 10.9222C25.7825 10.952 25.5685 10.9383 24.2556 10.8352C21.5894 10.622 20.3575 10.567 18.339 10.567C17.2806 10.5693 16.7023 10.5785 16.176 10.6083C15.1176 10.6679 14.0476 10.7549 13.2726 10.8443C12.8967 10.8856 12.5612 10.9222 12.5265 10.9222C12.4918 10.9222 12.2605 10.8466 12.0118 10.7549C11.7631 10.6633 11.3235 10.528 11.0344 10.4547C10.7394 10.3814 10.5023 10.3149 10.5023 10.3034C10.5023 10.2553 12.3993 10.0124 13.6254 9.90467C15.2275 9.76487 16.4305 9.73278 18.4547 9.77632ZM19.1777 10.716C20.5195 10.7366 21.306 10.7733 23.0237 10.8902C24.1631 10.9681 24.3193 11.0025 23.8797 11.0758C23.4864 11.14 23.1221 11.266 22.8445 11.4287C22.5784 11.5869 22.5726 11.5892 22.3644 11.5777C21.7976 11.541 20.6987 11.5181 19.4958 11.5181C17.5525 11.5181 16.2916 11.5846 14.4756 11.7863C13.8741 11.8527 13.4866 11.8848 13.4519 11.8711C13.423 11.8596 13.3305 11.7588 13.2495 11.6465C13.1685 11.5342 13.0239 11.3714 12.9314 11.2844C12.8331 11.195 12.7579 11.1148 12.7579 11.1056C12.7579 11.0483 14.3773 10.8649 15.5861 10.7847C16.1818 10.7458 16.8584 10.716 17.7028 10.6976C17.7665 10.6954 18.4316 10.7045 19.1777 10.716ZM40.7215 11.1491C41.1495 11.2477 41.4445 11.3692 41.4445 11.4494C41.4445 11.5479 40.8083 12.0269 40.3687 12.2584C40.0044 12.4509 39.7614 12.5311 39.6631 12.4944C39.64 12.4853 39.6226 12.2378 39.6284 11.9467C39.6342 11.3714 39.6284 11.3829 39.987 11.1675C40.1663 11.062 40.3225 11.0575 40.7215 11.1491ZM28.0323 11.3348C28.8073 11.4127 30.2012 11.5617 31.1208 11.6671C34.1109 12.0086 34.4174 12.0315 35.9211 12.0338C36.8176 12.0338 37.0836 12.0246 37.3613 11.9902C37.8182 11.9375 38.5064 11.7977 38.8939 11.6808C39.0674 11.6281 39.2294 11.5869 39.2525 11.5869C39.345 11.5869 39.3624 11.6808 39.3624 12.1507V12.6411L39.0154 12.7099C38.4081 12.8313 38.0495 12.8566 36.9911 12.8566C35.7245 12.8566 35.1808 12.8107 32.1618 12.4509C30.8489 12.2928 29.4956 12.153 27.7374 11.9902C25.8635 11.8184 25.6668 11.7977 25.6321 11.7748C25.6148 11.7656 25.7073 11.7061 25.8288 11.6442C26.037 11.541 26.118 11.4608 26.2047 11.2706C26.2394 11.2064 26.2626 11.1973 26.4361 11.1973C26.5402 11.1973 27.2573 11.2591 28.0323 11.3348ZM9.72728 11.2798C9.85452 11.305 9.95284 11.3325 9.94705 11.3462C9.94127 11.3737 9.18362 11.5915 8.87131 11.6579C8.65731 11.7015 8.65731 11.7015 8.5937 11.6579C8.50694 11.5915 8.39705 11.3027 8.43754 11.2546C8.47802 11.2179 8.53586 11.2156 8.99276 11.2248C9.32821 11.2339 9.58269 11.2523 9.72728 11.2798ZM10.8088 11.5617C11.3409 11.7863 11.7631 12.1186 11.6127 12.1896C11.5722 12.208 11.3004 12.2813 11.0055 12.3501C10.4618 12.4784 10.0454 12.5976 9.53064 12.7741C9.3687 12.8268 9.22411 12.8634 9.21254 12.8543C9.18362 12.8359 8.82504 12.1828 8.74407 12.004C8.71515 11.9398 8.74407 11.9169 8.92336 11.8367C9.24724 11.6946 10.2073 11.4517 10.4502 11.4494C10.5023 11.4494 10.6642 11.4998 10.8088 11.5617ZM11.7978 12.4028C11.8672 12.4715 11.8325 12.8978 11.7457 13.072C11.6243 13.3126 11.2773 13.5854 10.9013 13.7366C10.5717 13.8696 10.0859 13.9933 9.88344 13.9933C9.73306 13.9933 9.71571 13.9704 9.49015 13.4731C9.32243 13.0926 9.32243 13.0972 9.64052 12.9368C9.87187 12.8199 10.5254 12.6136 11.0864 12.4807C11.5896 12.3592 11.74 12.3432 11.7978 12.4028ZM39.3624 12.9551C39.3624 12.9849 39.3219 13.0147 39.2698 13.0239C39.16 13.0399 38.5527 12.9895 38.5527 12.962C38.5527 12.9459 38.8419 12.8955 39.131 12.8634C39.2583 12.8497 39.3624 12.8909 39.3624 12.9551Z" fill="#8700F1"/>
<path opacity="0.8" d="M14.647 4.75781L17.6685 12.2988L20.6899 4.75781H22.2705V14H21.0518V10.4009L21.166 6.51611L18.1318 14H17.1987L14.1709 6.53516L14.2915 10.4009V14H13.0728V4.75781H14.647ZM28.4785 13.3208C28.0215 13.8582 27.3507 14.127 26.4663 14.127C25.7342 14.127 25.1756 13.9154 24.7905 13.4922C24.4097 13.0648 24.2171 12.4342 24.2129 11.6006V7.13184H25.3872V11.5688C25.3872 12.6099 25.8104 13.1304 26.6567 13.1304C27.5539 13.1304 28.1506 12.7961 28.4468 12.1274V7.13184H29.6211V14H28.5039L28.4785 13.3208ZM35.4102 12.1782C35.4102 11.8608 35.2896 11.6154 35.0483 11.4419C34.8114 11.2642 34.3945 11.1118 33.7979 10.9849C33.2054 10.8579 32.7336 10.7056 32.3823 10.5278C32.0353 10.3501 31.7772 10.1385 31.6079 9.89307C31.4429 9.64762 31.3604 9.35563 31.3604 9.01709C31.3604 8.45426 31.5973 7.97819 32.0713 7.58887C32.5495 7.19954 33.1589 7.00488 33.8994 7.00488C34.6781 7.00488 35.3086 7.20589 35.791 7.60791C36.2777 8.00993 36.521 8.52409 36.521 9.15039H35.3403C35.3403 8.82878 35.2028 8.5516 34.9277 8.31885C34.6569 8.0861 34.3141 7.96973 33.8994 7.96973C33.472 7.96973 33.1377 8.06283 32.8965 8.24902C32.6553 8.43522 32.5347 8.67855 32.5347 8.979C32.5347 9.26253 32.6468 9.47624 32.8711 9.62012C33.0954 9.764 33.4995 9.90153 34.0835 10.0327C34.6717 10.1639 35.1478 10.3205 35.5117 10.5024C35.8757 10.6844 36.1444 10.9045 36.3179 11.1626C36.4956 11.4165 36.5845 11.7275 36.5845 12.0957C36.5845 12.7093 36.339 13.2023 35.8481 13.5747C35.3573 13.9429 34.7204 14.127 33.9375 14.127C33.3874 14.127 32.9007 14.0296 32.4775 13.835C32.0544 13.6403 31.7222 13.3695 31.481 13.0225C31.244 12.6712 31.1255 12.2925 31.1255 11.8862H32.2998C32.321 12.2798 32.4775 12.5929 32.7695 12.8257C33.0658 13.0542 33.4551 13.1685 33.9375 13.1685C34.3818 13.1685 34.7373 13.0796 35.0039 12.9019C35.2747 12.7199 35.4102 12.4787 35.4102 12.1782ZM39.3901 14H38.2158V7.13184H39.3901V14ZM38.1206 5.31006C38.1206 5.11963 38.1777 4.95882 38.292 4.82764C38.4105 4.69645 38.584 4.63086 38.8125 4.63086C39.041 4.63086 39.2145 4.69645 39.333 4.82764C39.4515 4.95882 39.5107 5.11963 39.5107 5.31006C39.5107 5.50049 39.4515 5.65918 39.333 5.78613C39.2145 5.91309 39.041 5.97656 38.8125 5.97656C38.584 5.97656 38.4105 5.91309 38.292 5.78613C38.1777 5.65918 38.1206 5.50049 38.1206 5.31006ZM44.0303 13.1685C44.4492 13.1685 44.8153 13.0415 45.1284 12.7876C45.4416 12.5337 45.6151 12.2163 45.6489 11.8354H46.7598C46.7386 12.229 46.6032 12.6035 46.3535 12.959C46.1038 13.3145 45.7695 13.598 45.3506 13.8096C44.9359 14.0212 44.4958 14.127 44.0303 14.127C43.0951 14.127 42.3503 13.8159 41.7959 13.1938C41.2458 12.5675 40.9707 11.7127 40.9707 10.6294V10.4326C40.9707 9.764 41.0934 9.16943 41.3389 8.64893C41.5843 8.12842 41.9355 7.72428 42.3926 7.43652C42.8538 7.14876 43.3976 7.00488 44.0239 7.00488C44.7941 7.00488 45.4331 7.23551 45.9409 7.69678C46.453 8.15804 46.7259 8.75684 46.7598 9.49316H45.6489C45.6151 9.04883 45.4458 8.6849 45.1411 8.40137C44.8407 8.11361 44.4683 7.96973 44.0239 7.96973C43.4272 7.96973 42.9639 8.18555 42.6338 8.61719C42.3079 9.0446 42.145 9.66455 42.145 10.4771V10.6992C42.145 11.4906 42.3079 12.0999 42.6338 12.5273C42.9596 12.9548 43.4251 13.1685 44.0303 13.1685ZM52.7075 10.3818V14H51.4888V4.75781H54.8975C55.9089 4.75781 56.7002 5.01595 57.2715 5.53223C57.847 6.0485 58.1348 6.73193 58.1348 7.58252C58.1348 8.47965 57.8534 9.17155 57.2905 9.6582C56.7319 10.1406 55.93 10.3818 54.8848 10.3818H52.7075ZM52.7075 9.38525H54.8975C55.5492 9.38525 56.0485 9.23291 56.3955 8.92822C56.7425 8.6193 56.916 8.17497 56.916 7.59521C56.916 7.04508 56.7425 6.60498 56.3955 6.2749C56.0485 5.94482 55.5724 5.77344 54.9673 5.76074H52.7075V9.38525ZM60.7817 14H59.6074V4.25H60.7817V14ZM66.9072 14C66.8395 13.8646 66.7845 13.6234 66.7422 13.2764C66.1963 13.8434 65.5446 14.127 64.7871 14.127C64.11 14.127 63.5535 13.9365 63.1177 13.5557C62.686 13.1706 62.4702 12.6839 62.4702 12.0957C62.4702 11.3805 62.741 10.8262 63.2827 10.4326C63.8286 10.0348 64.5946 9.83594 65.5806 9.83594H66.7231V9.29639C66.7231 8.8859 66.6004 8.56006 66.355 8.31885C66.1095 8.0734 65.7477 7.95068 65.2695 7.95068C64.8506 7.95068 64.4993 8.05648 64.2158 8.26807C63.9323 8.47965 63.7905 8.73568 63.7905 9.03613H62.6099C62.6099 8.69336 62.7305 8.36328 62.9717 8.0459C63.2171 7.72428 63.5472 7.47038 63.9619 7.28418C64.3809 7.09798 64.84 7.00488 65.3394 7.00488C66.1307 7.00488 66.7507 7.20378 67.1992 7.60156C67.6478 7.99512 67.8805 8.5389 67.8975 9.23291V12.394C67.8975 13.0246 67.9779 13.526 68.1387 13.8984V14H66.9072ZM64.9585 13.105C65.3267 13.105 65.6758 13.0098 66.0059 12.8193C66.3359 12.6289 66.575 12.3813 66.7231 12.0767V10.6675H65.8027C64.3639 10.6675 63.6445 11.0885 63.6445 11.9307C63.6445 12.2988 63.7673 12.5866 64.0127 12.7939C64.2581 13.0013 64.5734 13.105 64.9585 13.105ZM71.8838 12.2798L73.4834 7.13184H74.7402L71.979 15.0601C71.5516 16.2026 70.8724 16.7739 69.9414 16.7739L69.7192 16.7549L69.2812 16.6724V15.7202L69.5986 15.7456C69.9964 15.7456 70.3053 15.6652 70.5254 15.5044C70.7497 15.3436 70.9338 15.0495 71.0776 14.6221L71.3379 13.9238L68.8877 7.13184H70.1699L71.8838 12.2798ZM78.5552 14.127C77.6242 14.127 76.8667 13.8223 76.2827 13.2129C75.6987 12.5993 75.4067 11.7804 75.4067 10.7563V10.5405C75.4067 9.85921 75.5358 9.25195 75.7939 8.71875C76.0563 8.18132 76.4202 7.76237 76.8857 7.46191C77.3555 7.15723 77.8633 7.00488 78.4092 7.00488C79.3021 7.00488 79.9961 7.29899 80.4912 7.88721C80.9863 8.47542 81.2339 9.31755 81.2339 10.4136V10.9023H76.5811C76.598 11.5794 76.7948 12.1274 77.1714 12.5464C77.5522 12.9611 78.0347 13.1685 78.6187 13.1685C79.0334 13.1685 79.3846 13.0838 79.6724 12.9146C79.9601 12.7453 80.2119 12.521 80.4277 12.2417L81.145 12.8003C80.5695 13.6847 79.7062 14.127 78.5552 14.127ZM78.4092 7.96973C77.9352 7.96973 77.5374 8.14323 77.2158 8.49023C76.8942 8.83301 76.6953 9.31543 76.6191 9.9375H80.0596V9.84863C80.0257 9.25195 79.8649 8.79069 79.5771 8.46484C79.2894 8.13477 78.9001 7.96973 78.4092 7.96973ZM85.9185 8.18555C85.7407 8.15592 85.5482 8.14111 85.3408 8.14111C84.5706 8.14111 84.048 8.46908 83.7729 9.125V14H82.5986V7.13184H83.7412L83.7603 7.92529C84.1453 7.31169 84.6912 7.00488 85.3979 7.00488C85.6265 7.00488 85.8 7.03451 85.9185 7.09375V8.18555Z" fill="white"/>
</svg>
